<svg width="512" height="512" viewBox="0 0 512 512" fill="none" xmlns="http://www.w3.org/2000/svg">
<rect x="123.127" y="169.066" width="268.13" height="199.155" rx="32" transform="rotate(-7.51454 123.127 169.066)" fill="#5D4037"/>
<path d="M111.743 189.505C110.78 178.502 118.92 168.801 129.924 167.838L196.717 161.995L201.006 211.014L114.289 218.6L111.743 189.505Z" fill="url(#paint0_linear_1_2)"/>
<rect x="110" y="177" width="262" height="190" rx="32" fill="#795548"/>
<rect x="110" y="310" width="262" height="29" fill="#FFC107"/>
<path d="M291.287 198.651C297.733 193.103 307.267 193.103 313.713 198.651V198.651C316.473 201.026 319.921 202.464 323.55 202.756V202.756C331.99 203.436 338.711 210.29 339.378 218.73V218.73C339.666 222.372 341.095 225.892 343.451 228.684V228.684C348.962 235.214 348.962 244.786 343.451 251.316V251.316C341.095 254.108 339.666 257.628 339.378 261.27V261.27C338.711 269.71 331.99 276.564 323.55 277.244V277.244C319.921 277.536 316.473 278.974 313.713 281.349V281.349C307.267 286.897 297.733 286.897 291.287 281.349V281.349C288.527 278.974 285.079 277.536 281.45 277.244V277.244C273.01 276.564 266.289 269.71 265.622 261.27V261.27C265.334 257.628 263.905 254.108 261.549 251.316V251.316C256.038 244.786 256.038 235.214 261.549 228.684V228.684C263.905 225.892 265.334 222.372 265.622 218.73V218.73C266.289 210.29 273.01 203.436 281.45 202.756V202.756C285.079 202.464 288.527 201.026 291.287 198.651V198.651Z" fill="#FAFAFA"/>
<path d="M277.508 240.48C277.068 239.893 276.664 239.05 276.298 237.95C275.931 236.85 275.748 235.677 275.748 234.43C275.748 232.083 276.261 230.433 277.288 229.48C278.388 228.453 279.708 227.94 281.248 227.94H327.448C327.814 228.6 328.181 229.48 328.548 230.58C328.988 231.68 329.208 232.853 329.208 234.1C329.208 236.373 328.658 238.023 327.558 239.05C326.531 240.003 325.248 240.48 323.708 240.48H316.998C316.631 244.293 315.238 247.63 312.818 250.49C310.398 253.277 306.914 255.293 302.368 256.54L318.318 267.32C318.318 270.62 317.474 273.333 315.788 275.46C314.174 277.587 311.718 278.65 308.418 278.65C306.511 278.65 304.751 278.137 303.138 277.11C301.598 276.083 300.094 274.91 298.628 273.59L280.258 256.76C279.744 255.66 279.488 254.377 279.488 252.91C279.488 249.977 280.661 247.777 283.008 246.31H289.498C291.844 246.31 293.678 245.797 294.998 244.77C296.391 243.67 297.381 242.24 297.968 240.48H277.508ZM277.508 222.77C277.068 222.11 276.664 221.23 276.298 220.13C275.931 219.03 275.748 217.857 275.748 216.61C275.748 214.337 276.261 212.723 277.288 211.77C278.388 210.743 279.708 210.23 281.248 210.23H327.448C327.814 210.817 328.181 211.697 328.548 212.87C328.988 213.97 329.208 215.107 329.208 216.28C329.208 218.627 328.658 220.313 327.558 221.34C326.531 222.293 325.248 222.77 323.708 222.77H277.508Z" fill="#5D4037"/>
<defs>
<linearGradient id="paint0_linear_1_2" x1="199.348" y1="192.068" x2="141.478" y2="231.877" gradientUnits="userSpaceOnUse">
<stop stop-color="#5D4037"/>
<stop offset="1" stop-color="#795548"/>
</linearGradient>
</defs>
</svg>
