<svg width="512" height="512" viewBox="0 0 512 512" fill="none" xmlns="http://www.w3.org/2000/svg">
<rect x="169.096" y="204.621" width="168.026" height="124.801" rx="32" transform="rotate(-7.51454 169.096 204.621)" fill="#5D4037"/>
<path d="M161.743 224.944C160.78 213.94 168.92 204.24 179.924 203.277L215.212 200.19L217.899 230.908L162.687 235.738L161.743 224.944Z" fill="url(#paint0_linear_1_2)"/>
<rect x="160.87" y="209.593" width="164.184" height="119.065" rx="32" fill="#8D6E63"/>
<path d="M161 287H325V300H161V287Z" fill="#FFC107"/>
<path d="M274.474 223.16C278.514 219.684 284.489 219.684 288.528 223.16V223.16C290.258 224.649 292.418 225.55 294.693 225.733V225.733C299.981 226.159 304.193 230.454 304.611 235.743V235.743C304.791 238.026 305.687 240.231 307.163 241.981V241.981C310.617 246.073 310.617 252.071 307.163 256.163V256.163C305.687 257.913 304.791 260.119 304.611 262.401V262.401C304.193 267.69 299.981 271.985 294.693 272.411V272.411C292.418 272.594 290.258 273.496 288.528 274.984V274.984C284.489 278.461 278.514 278.461 274.474 274.984V274.984C272.745 273.496 270.584 272.594 268.31 272.411V272.411C263.021 271.985 258.809 267.69 258.392 262.401V262.401C258.211 260.119 257.315 257.913 255.839 256.163V256.163C252.386 252.071 252.386 246.073 255.839 241.981V241.981C257.315 240.231 258.211 238.026 258.392 235.743V235.743C258.809 230.454 263.021 226.159 268.31 225.733V225.733C270.584 225.55 272.745 224.649 274.474 223.16V223.16Z" fill="#FAFAFA"/>
<path d="M267.404 247.752C267.148 247.411 266.914 246.92 266.7 246.28C266.487 245.64 266.38 244.957 266.38 244.232C266.38 242.867 266.679 241.907 267.276 241.352C267.916 240.755 268.684 240.456 269.58 240.456H296.46C296.674 240.84 296.887 241.352 297.1 241.992C297.356 242.632 297.484 243.315 297.484 244.04C297.484 245.363 297.164 246.323 296.524 246.92C295.927 247.475 295.18 247.752 294.284 247.752H290.38C290.167 249.971 289.356 251.912 287.948 253.576C286.54 255.197 284.514 256.371 281.868 257.096L291.148 263.368C291.148 265.288 290.658 266.867 289.676 268.104C288.738 269.341 287.308 269.96 285.388 269.96C284.279 269.96 283.255 269.661 282.316 269.064C281.42 268.467 280.546 267.784 279.692 267.016L269.004 257.224C268.706 256.584 268.556 255.837 268.556 254.984C268.556 253.277 269.239 251.997 270.604 251.144H274.38C275.746 251.144 276.812 250.845 277.58 250.248C278.391 249.608 278.967 248.776 279.308 247.752H267.404ZM267.404 237.448C267.148 237.064 266.914 236.552 266.7 235.912C266.487 235.272 266.38 234.589 266.38 233.864C266.38 232.541 266.679 231.603 267.276 231.048C267.916 230.451 268.684 230.152 269.58 230.152H296.46C296.674 230.493 296.887 231.005 297.1 231.688C297.356 232.328 297.484 232.989 297.484 233.672C297.484 235.037 297.164 236.019 296.524 236.616C295.927 237.171 295.18 237.448 294.284 237.448H267.404Z" fill="#5D4037"/>
<defs>
<linearGradient id="paint0_linear_1_2" x1="216.86" y1="219.035" x2="180.333" y2="244.533" gradientUnits="userSpaceOnUse">
<stop stop-color="#5D4037"/>
<stop offset="1" stop-color="#795548"/>
</linearGradient>
</defs>
</svg>
