<svg width="512" height="512" viewBox="0 0 512 512" fill="none" xmlns="http://www.w3.org/2000/svg">
<mask id="path-1-inside-1_1_2" fill="white">
<path d="M303.954 186.831C321.475 184.52 337.553 196.851 339.864 214.372L347.815 274.651C350.049 291.587 338.604 307.172 322.013 310.282C316.896 321.141 305.853 328.657 293.054 328.657H192.87C175.197 328.657 160.87 314.33 160.87 296.657V241.593C160.87 238.227 161.391 234.982 162.354 231.935L161.743 224.944C160.78 213.941 168.92 204.24 179.924 203.277L194.229 202.025C196.324 201.279 198.528 200.738 200.821 200.436L303.954 186.831Z"/>
</mask>
<path d="M303.954 186.831L303.562 183.857L303.562 183.857L303.954 186.831ZM339.864 214.372L342.838 213.98L342.838 213.98L339.864 214.372ZM347.815 274.651L350.789 274.259V274.259L347.815 274.651ZM322.013 310.282L321.461 307.334L319.954 307.616L319.3 309.003L322.013 310.282ZM160.87 241.593L157.87 241.593V241.593H160.87ZM162.354 231.935L165.215 232.839L165.395 232.269L165.343 231.673L162.354 231.935ZM161.743 224.944L164.732 224.683L164.732 224.683L161.743 224.944ZM179.924 203.277L180.185 206.266L180.185 206.266L179.924 203.277ZM194.229 202.025L194.491 205.014L194.874 204.98L195.237 204.851L194.229 202.025ZM200.821 200.436L200.429 197.461L200.429 197.461L200.821 200.436ZM303.954 186.831L304.346 189.805C320.225 187.711 334.795 198.886 336.89 214.764L339.864 214.372L342.838 213.98C340.31 194.816 322.725 181.329 303.562 183.857L303.954 186.831ZM339.864 214.372L336.89 214.764L344.841 275.044L347.815 274.651L350.789 274.259L342.838 213.98L339.864 214.372ZM347.815 274.651L344.841 275.044C346.865 290.391 336.493 304.516 321.461 307.334L322.013 310.282L322.566 313.231C340.714 309.829 353.233 292.784 350.789 274.259L347.815 274.651ZM322.013 310.282L319.3 309.003C314.658 318.851 304.649 325.657 293.054 325.657V328.657V331.657C307.058 331.657 319.133 323.431 324.727 311.561L322.013 310.282ZM293.054 328.657V325.657H192.87V328.657V331.657H293.054V328.657ZM192.87 328.657V325.657C176.854 325.657 163.87 312.674 163.87 296.657H160.87H157.87C157.87 315.987 173.54 331.657 192.87 331.657V328.657ZM160.87 296.657H163.87V241.593H160.87H157.87V296.657H160.87ZM160.87 241.593L163.87 241.593C163.87 238.538 164.342 235.598 165.215 232.839L162.354 231.935L159.494 231.03C158.439 234.366 157.87 237.916 157.87 241.593L160.87 241.593ZM162.354 231.935L165.343 231.673L164.732 224.683L161.743 224.944L158.754 225.206L159.366 232.196L162.354 231.935ZM161.743 224.944L164.732 224.683C163.913 215.33 170.832 207.084 180.185 206.266L179.924 203.277L179.662 200.289C167.008 201.396 157.647 212.552 158.754 225.206L161.743 224.944ZM179.924 203.277L180.185 206.266L194.491 205.014L194.229 202.025L193.968 199.037L179.662 200.289L179.924 203.277ZM194.229 202.025L195.237 204.851C197.135 204.174 199.133 203.684 201.213 203.41L200.821 200.436L200.429 197.461C197.922 197.792 195.512 198.383 193.222 199.2L194.229 202.025ZM200.821 200.436L201.213 203.41L304.346 189.805L303.954 186.831L303.562 183.857L200.429 197.461L200.821 200.436Z" fill="black" mask="url(#path-1-inside-1_1_2)"/>
<path d="M161 287H325V300H161V287Z" fill="black"/>
<path d="M274.474 223.16C278.514 219.684 284.489 219.684 288.528 223.16V223.16C290.258 224.649 292.418 225.55 294.693 225.733V225.733C299.981 226.159 304.193 230.454 304.611 235.743V235.743C304.791 238.026 305.687 240.231 307.163 241.981V241.981C310.617 246.073 310.617 252.071 307.163 256.163V256.163C305.687 257.913 304.791 260.119 304.611 262.401V262.401C304.193 267.69 299.981 271.985 294.693 272.411V272.411C292.418 272.594 290.258 273.496 288.528 274.984V274.984C284.489 278.461 278.514 278.461 274.474 274.984V274.984C272.745 273.496 270.584 272.594 268.31 272.411V272.411C263.021 271.985 258.809 267.69 258.392 262.401V262.401C258.211 260.119 257.315 257.913 255.839 256.163V256.163C252.386 252.071 252.386 246.073 255.839 241.981V241.981C257.315 240.231 258.211 238.026 258.392 235.743V235.743C258.809 230.454 263.021 226.159 268.31 225.733V225.733C270.584 225.55 272.745 224.649 274.474 223.16V223.16Z" stroke="black" stroke-width="2.5"/>
<path d="M267.404 247.752C267.148 247.411 266.914 246.92 266.7 246.28C266.487 245.64 266.38 244.957 266.38 244.232C266.38 242.867 266.679 241.907 267.276 241.352C267.916 240.755 268.684 240.456 269.58 240.456H296.46C296.674 240.84 296.887 241.352 297.1 241.992C297.356 242.632 297.484 243.315 297.484 244.04C297.484 245.363 297.164 246.323 296.524 246.92C295.927 247.475 295.18 247.752 294.284 247.752H290.38C290.167 249.971 289.356 251.912 287.948 253.576C286.54 255.197 284.514 256.371 281.868 257.096L291.148 263.368C291.148 265.288 290.658 266.867 289.676 268.104C288.738 269.341 287.308 269.96 285.388 269.96C284.279 269.96 283.255 269.661 282.316 269.064C281.42 268.467 280.546 267.784 279.692 267.016L269.004 257.224C268.706 256.584 268.556 255.837 268.556 254.984C268.556 253.277 269.239 251.997 270.604 251.144H274.38C275.746 251.144 276.812 250.845 277.58 250.248C278.391 249.608 278.967 248.776 279.308 247.752H267.404ZM267.404 237.448C267.148 237.064 266.914 236.552 266.7 235.912C266.487 235.272 266.38 234.589 266.38 233.864C266.38 232.541 266.679 231.603 267.276 231.048C267.916 230.451 268.684 230.152 269.58 230.152H296.46C296.674 230.493 296.887 231.005 297.1 231.688C297.356 232.328 297.484 232.989 297.484 233.672C297.484 235.037 297.164 236.019 296.524 236.616C295.927 237.171 295.18 237.448 294.284 237.448H267.404Z" fill="black"/>
<rect x="162.37" y="211.093" width="161.184" height="116.065" rx="30.5" stroke="black" stroke-width="3"/>
</svg>
